<svg width="2000" height="1743" viewBox="0 0 2000 1743" fill="none" xmlns="http://www.w3.org/2000/svg">
<path d="M0 0H1600C1820.91 0 2000 179.086 2000 400V1743H400C179.086 1743 0 1563.91 0 1343V0Z" fill="#134E19"/>
<mask id="mask0_3233_1843" style="mask-type:alpha" maskUnits="userSpaceOnUse" x="0" y="0" width="2000" height="1743">
<path d="M0 0H1600C1820.91 0 2000 179.086 2000 400V1743H400C179.086 1743 0 1563.91 0 1343V0Z" fill="#0A4219"/>
</mask>
<g mask="url(#mask0_3233_1843)">
<ellipse cx="2129.5" cy="-130.648" rx="1129.5" ry="1157.39" transform="rotate(-180 2129.5 -130.648)" fill="url(#paint0_linear_3233_1843)"/>
<g style="mix-blend-mode:color-dodge" filter="url(#filter0_f_3233_1843)">
<ellipse cx="1543.5" cy="65.8087" rx="498.5" ry="510.809" fill="#D9FF6B"/>
</g>
<g style="mix-blend-mode:color-dodge" filter="url(#filter1_f_3233_1843)">
<ellipse cx="329.5" cy="1788.81" rx="498.5" ry="510.809" fill="#D9FF6B"/>
</g>
<ellipse rx="1111.38" ry="1125.02" transform="matrix(0.860664 0.509174 -0.490882 0.871226 1098.78 2122.93)" fill="url(#paint1_linear_3233_1843)"/>
</g>
<defs>
<filter id="filter0_f_3233_1843" x="445" y="-1045" width="2197" height="2221.62" filterUnits="userSpaceOnUse" color-interpolation-filters="sRGB">
<feFlood flood-opacity="0" result="BackgroundImageFix"/>
<feBlend mode="normal" in="SourceGraphic" in2="BackgroundImageFix" result="shape"/>
<feGaussianBlur stdDeviation="300" result="effect1_foregroundBlur_3233_1843"/>
</filter>
<filter id="filter1_f_3233_1843" x="-769" y="678" width="2197" height="2221.62" filterUnits="userSpaceOnUse" color-interpolation-filters="sRGB">
<feFlood flood-opacity="0" result="BackgroundImageFix"/>
<feBlend mode="normal" in="SourceGraphic" in2="BackgroundImageFix" result="shape"/>
<feGaussianBlur stdDeviation="300" result="effect1_foregroundBlur_3233_1843"/>
</filter>
<linearGradient id="paint0_linear_3233_1843" x1="2693" y1="-1271.5" x2="2112.53" y2="-557.034" gradientUnits="userSpaceOnUse">
<stop stop-color="#5ECB1B" stop-opacity="0.16"/>
<stop offset="1" stop-color="#8B1C1C" stop-opacity="0"/>
</linearGradient>
<linearGradient id="paint1_linear_3233_1843" x1="1695.38" y1="223.01" x2="646.992" y2="1035.36" gradientUnits="userSpaceOnUse">
<stop stop-color="#C7A90B" stop-opacity="0.16"/>
<stop offset="1" stop-color="#8B1C1C" stop-opacity="0"/>
</linearGradient>
</defs>
</svg>
