<svg width="19" height="19" viewBox="0 0 19 19" fill="none" xmlns="http://www.w3.org/2000/svg">
<path fill-rule="evenodd" clip-rule="evenodd" d="M8.07001 0.13223C7.57333 0.472299 7.42556 0.98329 7.70439 1.39622C7.97393 1.79557 8.16869 1.87561 8.96962 1.91623C11.0254 2.02051 12.8995 2.83259 14.4131 4.27493C15.1783 5.00413 15.7383 5.75269 16.1731 6.62749C16.742 7.77184 17.0191 8.80556 17.0805 10.0122C17.1104 10.6004 17.1417 10.7675 17.252 10.931C17.6882 11.577 18.4114 11.5658 18.8692 10.9058C19.013 10.6987 19.0177 10.6573 18.9799 9.92789C18.7043 4.59895 14.387 0.293062 9.04536 0.0195092C8.32264 -0.0175569 8.28175 -0.0127968 8.07001 0.13223ZM2.66365 3.01101C1.65644 3.2864 0.807373 3.99275 0.312481 4.96707L0.0292681 5.52458L0.00402441 6.33216C-0.0366708 7.6362 0.227276 8.69728 0.978166 10.2485C2.28181 12.9415 4.84847 15.658 7.91575 17.5912C8.68775 18.0777 9.85977 18.5863 10.7709 18.8302C11.3126 18.9751 11.5339 19.0003 12.2652 19C13.0448 18.9997 13.1591 18.9846 13.5103 18.8361C15.0735 18.1749 16.0804 16.8572 16.0804 15.4727C16.0804 15.1344 16.0404 14.8718 15.9536 14.6403C15.8302 14.3111 15.4962 13.9213 15.2141 13.7774C14.9701 13.6528 11.4908 12.8157 11.2232 12.8171C10.8235 12.8193 10.4803 13.0119 9.91394 13.552L9.39712 14.0448L9.03486 13.8691C7.41952 13.0854 5.81142 11.4757 4.96515 9.79537L4.77058 9.40897L5.33828 8.84491C5.65049 8.53474 5.96333 8.15913 6.0334 8.01023C6.25786 7.5337 6.21297 7.26834 5.59497 5.41941C5.08806 3.90294 5.00419 3.70079 4.79105 3.48296C4.31645 2.99781 3.43062 2.80124 2.66365 3.01101ZM8.07001 3.94051C7.57346 4.2802 7.42556 4.79138 7.70439 5.20438C7.96057 5.58386 8.18058 5.68383 8.84684 5.72356C11.1753 5.86217 13.1092 7.79558 13.2634 10.1389C13.3069 10.7998 13.4088 11.0212 13.7863 11.2751C14.2 11.5534 14.7121 11.4058 15.0525 10.9101C15.195 10.7026 15.2017 10.6519 15.1659 10.0548C15.0354 7.87929 13.7897 5.85005 11.9075 4.7474C10.98 4.20398 9.94154 3.88504 8.90426 3.82487C8.33173 3.79168 8.27634 3.79936 8.07001 3.94051Z" fill="white"/>
</svg>
