<svg width="93" height="81" viewBox="0 0 93 81" fill="none" xmlns="http://www.w3.org/2000/svg">
<path d="M27.9641 35.8402C26.9688 39.8481 29.4 43.7753 32.4834 46.5223C33.4823 47.4121 34.3665 48.4167 35.136 49.536C37.248 52.608 38.304 56.352 38.304 60.768C38.304 66.528 36.48 71.232 32.832 74.88C29.184 78.528 24.672 80.352 19.296 80.352C13.728 80.352 9.12 78.528 5.472 74.88C1.824 71.04 0 66.336 0 60.768C0 58.08 0.288 55.392 0.864 52.704C1.632 49.824 3.072 45.696 5.184 40.32L16.889 5.45393C17.9829 2.19551 21.0359 0 24.4731 0H26.6345C31.8338 0 35.6517 4.88192 34.3987 9.92802L27.9641 35.8402ZM82.3961 35.8402C81.4008 39.8481 83.832 43.7753 86.9154 46.5223C87.9143 47.4121 88.7985 48.4167 89.568 49.536C91.68 52.608 92.736 56.352 92.736 60.768C92.736 66.528 90.912 71.232 87.264 74.88C83.616 78.528 79.104 80.352 73.728 80.352C68.16 80.352 63.552 78.528 59.904 74.88C56.256 71.04 54.432 66.336 54.432 60.768C54.432 58.08 54.72 55.392 55.296 52.704C56.064 49.824 57.504 45.696 59.616 40.32L71.321 5.45393C72.4149 2.19551 75.4679 0 78.9051 0H81.0664C86.2658 0 90.0837 4.88192 88.8307 9.92802L82.3961 35.8402Z" fill="#DDFBDB"/>
</svg>
