<svg width="17" height="22" viewBox="0 0 17 22" fill="none" xmlns="http://www.w3.org/2000/svg">
<path fill-rule="evenodd" clip-rule="evenodd" d="M7.81187 0.0194814C7.70445 0.0378995 7.3705 0.0930752 7.06974 0.141954C5.9767 0.31976 4.77438 0.859711 3.7647 1.62627C2.39559 2.66579 1.37614 4.21732 0.926566 5.94572C0.731269 6.69677 0.652213 8.23524 0.770016 8.99361C1.06109 10.8678 2.08585 13.0179 3.59916 14.9302C4.84258 16.5013 6.28332 17.8581 7.53408 18.6358C8.40823 19.1794 8.54298 19.1918 9.32159 18.8013C10.1332 18.3941 10.9816 17.7063 12.07 16.5732C14.043 14.5192 15.4791 12.129 16.0728 9.91145C16.2534 9.23651 16.2781 8.99447 16.2797 7.88561C16.281 6.95077 16.2468 6.48709 16.147 6.08606C15.3978 3.07705 13.0814 0.8006 10.1237 0.16659C9.57305 0.0485253 8.16418 -0.0411254 7.81187 0.0194814ZM9.63164 3.36049C10.6382 3.67375 11.4225 4.37002 11.8811 5.35752C13.0396 7.85176 11.2509 10.6798 8.51494 10.6798C6.56462 10.6798 4.99616 9.24469 4.79867 7.27962C4.66251 5.92407 5.43393 4.39899 6.60579 3.70697C7.47549 3.19346 8.6593 3.05793 9.63164 3.36049ZM3.87016 18.0854C2.73408 18.3026 1.7654 18.598 1.04359 18.9475C0.442933 19.2383 0 19.6192 0 19.845C0 20.1874 0.72666 20.675 1.8029 21.0551C5.46714 22.349 11.94 22.3081 15.4482 20.9691C16.6288 20.5184 17.1436 20.085 16.9657 19.6915C16.7047 19.1142 15.0595 18.4305 13.019 18.0512L12.4063 17.9373L11.8863 18.4128C11.1754 19.0627 10.386 19.6168 9.68672 19.9567C9.19925 20.1937 9.01552 20.2417 8.59305 20.2423C8.15825 20.243 7.98982 20.1968 7.42127 19.9213C6.7607 19.6012 5.40323 18.6304 4.96546 18.1651C4.8393 18.0309 4.71626 17.9246 4.69204 17.9289C4.66783 17.9332 4.29801 18.0036 3.87016 18.0854Z" fill="white"/>
</svg>
