<svg width="19" height="18" viewBox="0 0 19 18" fill="none" xmlns="http://www.w3.org/2000/svg">
<path fill-rule="evenodd" clip-rule="evenodd" d="M0.431733 0.0750304C0.299832 0.12635 0.143247 0.289549 0.0837066 0.437884C0.0152668 0.608515 -0.0133381 2.04547 0.00583775 4.35386C0.0334891 7.69788 0.0517114 8.01514 0.225248 8.17944C0.400161 8.34515 0.717357 8.35871 4.43271 8.35871C8.14901 8.35871 8.46525 8.34525 8.64016 8.17934C8.81518 8.01353 8.82938 7.71375 8.82938 4.19086C8.82938 0.668873 8.81508 0.368186 8.64027 0.202376C8.46652 0.0374693 8.13735 0.0213 4.56143 0.0024191C2.35589 -0.0092308 0.567765 0.0222042 0.431733 0.0750304ZM10.6024 0.0750304C10.4705 0.12635 10.3139 0.289549 10.2543 0.437884C10.1859 0.608515 10.1573 2.04547 10.1765 4.35386C10.2041 7.69788 10.2223 8.01514 10.3959 8.17944C10.5708 8.34515 10.888 8.35871 14.6033 8.35871C18.3196 8.35871 18.6359 8.34525 18.8108 8.17934C18.9858 8.01353 19 7.71375 19 4.19086C19 0.668873 18.9857 0.368186 18.8109 0.202376C18.6371 0.0374693 18.308 0.0213 14.732 0.0024191C12.5265 -0.0092308 10.7384 0.0222042 10.6024 0.0750304ZM0.431733 9.71632C0.299832 9.76764 0.143247 9.93084 0.0837066 10.0792C0.0152668 10.2498 -0.0133381 11.6868 0.00583775 13.9951C0.0334891 17.3392 0.0517114 17.6564 0.225248 17.8207C0.400161 17.9864 0.717357 18 4.43271 18C8.14901 18 8.46525 17.9865 8.64016 17.8206C8.81518 17.6548 8.82938 17.355 8.82938 13.8322C8.82938 10.3102 8.81508 10.0095 8.64027 9.84367C8.46652 9.67876 8.13735 9.66259 4.56143 9.64371C2.35589 9.63206 0.567765 9.6635 0.431733 9.71632ZM10.6024 9.71632C10.4705 9.76764 10.3139 9.93084 10.2543 10.0792C10.1859 10.2498 10.1573 11.6868 10.1765 13.9951C10.2041 17.3392 10.2223 17.6564 10.3959 17.8207C10.5708 17.9864 10.888 18 14.6033 18C18.3196 18 18.6359 17.9865 18.8108 17.8206C18.9858 17.6548 19 17.355 19 13.8322C19 10.3102 18.9857 10.0095 18.8109 9.84367C18.6371 9.67876 18.308 9.66259 14.732 9.64371C12.5265 9.63206 10.7384 9.6635 10.6024 9.71632Z" fill="white"/>
</svg>
