<svg width="22" height="22" viewBox="0 0 22 22" fill="none" xmlns="http://www.w3.org/2000/svg">
<path fill-rule="evenodd" clip-rule="evenodd" d="M9.67497 0.0462568C7.8727 0.260878 5.89869 1.06084 4.40806 2.18085C3.65444 2.74702 2.47495 3.96519 1.97836 4.69008C-0.133669 7.77319 -0.578617 11.5437 0.759054 15.0225C1.71763 17.5154 3.76569 19.7401 6.18415 20.9154C7.00732 21.3154 8.21539 21.7149 9.08548 21.8749C9.99771 22.0426 12.0411 22.0415 12.9593 21.8729C14.4225 21.6043 16.0436 20.9297 17.3265 20.0557C18.1187 19.5158 19.5984 18.0087 20.1443 17.1856C20.9807 15.9241 21.6113 14.3766 21.8752 12.9379C22.0416 12.0304 22.0416 9.97872 21.8752 9.07123C21.6113 7.63248 20.9807 6.08498 20.1443 4.82353C19.5984 4.00041 18.1187 2.49327 17.3265 1.95345C16.0502 1.08393 14.4084 0.3989 12.998 0.147469C12.2098 0.0069049 10.4544 -0.0465326 9.67497 0.0462568ZM11.6514 3.71761C12.1081 4.06459 12.1046 4.03867 12.1046 7.07517V9.83264L14.1172 9.85587C16.0828 9.87867 16.1362 9.88317 16.4035 10.0496C16.7449 10.262 16.8913 10.5378 16.8913 10.9683C16.8913 11.347 16.775 11.6125 16.4935 11.8758L16.2996 12.0573L13.4949 12.0766C10.7964 12.0952 10.6814 12.0904 10.454 11.9502C10.3239 11.8701 10.1523 11.6981 10.0723 11.5679C9.9315 11.3384 9.92773 11.2232 9.94608 7.72317L9.96508 4.11505L10.2171 3.85476C10.6413 3.41674 11.1867 3.36453 11.6514 3.71761Z" fill="white"/>
</svg>
