<svg width="20" height="14" viewBox="0 0 20 14" fill="none" xmlns="http://www.w3.org/2000/svg">
<path fill-rule="evenodd" clip-rule="evenodd" d="M0.520309 0.144495C0.0763056 0.439395 0.0297138 0.561798 0.00543079 1.49736C-0.0198393 2.46875 0.0352415 2.71677 0.338285 2.99561C0.491156 3.13626 1.88384 3.76838 5.1275 5.1694C8.7862 6.74973 9.76035 7.14629 9.99725 7.15169C10.2511 7.15753 10.9465 6.87419 14.8645 5.1687C17.3787 4.07432 19.5193 3.11044 19.6215 3.02676C19.9566 2.75235 20 2.59077 20 1.61822C20 0.795945 19.9882 0.708284 19.8504 0.508752C19.7681 0.389559 19.6008 0.226312 19.4787 0.146037L19.2566 0H9.99725H0.737869L0.520309 0.144495ZM0.00957664 9.13885C0.0272131 13.2959 0.0291214 13.3507 0.16508 13.5297C0.240824 13.6294 0.400671 13.776 0.520309 13.8555L0.737869 14H9.99725H19.2566L19.4742 13.8555C19.5938 13.776 19.7537 13.6294 19.8294 13.5297C19.9654 13.3507 19.9673 13.2958 19.9849 9.14669C19.9947 6.83572 19.9802 4.94495 19.9526 4.94495C19.9249 4.94495 17.8736 5.82432 15.394 6.89911C10.4574 9.03893 10.3738 9.06802 9.56022 8.92975C9.23059 8.87375 8.02908 8.38093 4.67402 6.92576C2.22696 5.86439 0.172385 4.98105 0.108288 4.96268C-0.00253195 4.93089 -0.0074017 5.13614 0.00957664 9.13885Z" fill="white"/>
</svg>
