<svg width="76" height="66" viewBox="0 0 76 66" fill="none" xmlns="http://www.w3.org/2000/svg">
<path d="M23.2284 28.1834C22.2362 32.1881 24.75 36.095 27.5496 39.1255C27.999 39.6121 28.4142 40.1329 28.795 40.6882C30.5259 43.2115 31.3913 46.2867 31.3913 49.914C31.3913 54.6452 29.8965 58.509 26.9068 61.5054C23.9172 64.5018 20.2195 66 15.8137 66C11.2505 66 7.47412 64.5018 4.48447 61.5054C1.49482 58.3513 0 54.4875 0 49.914C0 47.7061 0.236025 45.4982 0.708074 43.2903C1.33747 40.9247 2.5176 37.5341 4.24845 33.1183L13.6402 5.07938C14.6566 2.04514 17.4984 0 20.6984 0C25.5344 0 29.0865 4.53949 27.9234 9.23363L23.2284 28.1834ZM67.8371 28.1834C66.8449 32.1881 69.3587 36.0949 72.1583 39.1255C72.6077 39.6121 73.0229 40.1329 73.4037 40.6882C75.1346 43.2115 76 46.2867 76 49.914C76 54.6452 74.5052 58.509 71.5155 61.5054C68.5259 64.5018 64.8282 66 60.4224 66C55.8592 66 52.0828 64.5018 49.0932 61.5054C46.1035 58.3513 44.6087 54.4875 44.6087 49.914C44.6087 47.7061 44.8447 45.4982 45.3168 43.2903C45.9462 40.9247 47.1263 37.5341 48.8571 33.1183L58.2489 5.07938C59.2653 2.04514 62.1071 0 65.3071 0C70.1431 0 73.6952 4.53949 72.5321 9.23363L67.8371 28.1834Z" fill="url(#paint0_linear_2051_152)"/>
<defs>
<linearGradient id="paint0_linear_2051_152" x1="-13.2816" y1="77.2821" x2="137.322" y2="24.4368" gradientUnits="userSpaceOnUse">
<stop stop-color="#ffffff"/>
<stop offset="1" stop-color="#ffffff"/>
</linearGradient>
</defs>
</svg>
